<?xml version="1.0" encoding="UTF-8"?>
<svg version="1.1" xmlns="http://www.w3.org/2000/svg" width="845" height="655">
<path d="M0 0 C278.85 0 557.7 0 845 0 C845 216.15 845 432.3 845 655 C566.15 655 287.3 655 0 655 C0 438.85 0 222.7 0 0 Z " fill="#BFBABC" transform="translate(0,0)"/>
<path d="M0 0 C1.90087891 -0.28051758 1.90087891 -0.28051758 4.2265625 -0.14453125 C5.08531982 -0.10021973 5.94407715 -0.0559082 6.82885742 -0.01025391 C7.75158447 0.05500488 8.67431152 0.12026367 9.625 0.1875 C11.04872925 0.27378662 11.04872925 0.27378662 12.5012207 0.36181641 C20.71719048 0.89696415 28.85951783 1.75599674 37 3 C38.19592773 3.18248291 38.19592773 3.18248291 39.41601562 3.36865234 C41.92476233 3.75732461 44.4314728 4.15667968 46.9375 4.5625 C47.72600342 4.68931152 48.51450684 4.81612305 49.3269043 4.94677734 C54.87950008 5.87950008 54.87950008 5.87950008 56 7 C57.45472841 7.16163649 58.91452051 7.27824899 60.375 7.375 C66.1355636 7.88279535 71.47891194 9.33107795 77 11 C77 11.66 77 12.32 77 13 C78.134375 12.938125 79.26875 12.87625 80.4375 12.8125 C85.33847991 12.78619778 89.473967 14.23987606 94 16 C94 16.66 94 17.32 94 18 C94.78375 17.9175 95.5675 17.835 96.375 17.75 C100.52142807 18.03596056 103.46283001 19.22807063 107.25390625 20.84375 C111.76785022 22.74435799 116.38911578 24.35200336 121 26 C121 26.66 121 27.32 121 28 C121.70125 27.938125 122.4025 27.87625 123.125 27.8125 C126.65260212 28.04256101 128.93984351 29.29200568 132 31 C132 31.66 132 32.32 132 33 C132.721875 32.938125 133.44375 32.87625 134.1875 32.8125 C137.56199315 33.03746621 139.30593911 33.99869763 142 36 C142 36.66 142 37.32 142 38 C142.69609375 38.10570312 143.3921875 38.21140625 144.109375 38.3203125 C147.43911573 39.10325154 150.1860131 40.35810008 153.25 41.875 C154.83554687 42.64457031 154.83554687 42.64457031 156.453125 43.4296875 C159 45 159 45 160 48 C161.1446875 48.185625 161.1446875 48.185625 162.3125 48.375 C165 49 165 49 168 51 C168 51.66 168 52.32 168 53 C168.53625 53.0825 169.0725 53.165 169.625 53.25 C172.87340691 54.27581271 175.28751859 55.96563894 178 58 C178 58.66 178 59.32 178 60 C178.78375 60.0825 179.5675 60.165 180.375 60.25 C181.24125 60.4975 182.1075 60.745 183 61 C183.69937532 62.31647119 184.36729133 63.65022151 185 65 C186.33043574 65.34471675 187.66430315 65.67626737 189 66 C190.921875 67.12109375 190.921875 67.12109375 192.75 68.4375 C193.36359375 68.86933594 193.9771875 69.30117187 194.609375 69.74609375 C195.06828125 70.15988281 195.5271875 70.57367188 196 71 C196 71.66 196 72.32 196 73 C196.66 73 197.32 73 198 73 C198 73.66 198 74.32 198 75 C199.32 75.33 200.64 75.66 202 76 C202 76.66 202 77.32 202 78 C202.804375 78.268125 203.60875 78.53625 204.4375 78.8125 C205.283125 79.204375 206.12875 79.59625 207 80 C207.33 80.99 207.66 81.98 208 83 C208.66 83.33 209.32 83.66 210 84 C210.66 84.33 211.32 84.66 212 85 C212.33 85.99 212.66 86.98 213 88 C215.50447516 89.21869929 215.50447516 89.21869929 218 90 C218 90.99 218 91.98 218 93 C218.639375 93.268125 219.27875 93.53625 219.9375 93.8125 C222 95 222 95 223 98 C223.639375 98.28875 224.27875 98.5775 224.9375 98.875 C227.72159465 100.39359708 227.84870884 102.1217721 229 105 C229.60199219 105.29777344 230.20398438 105.59554687 230.82421875 105.90234375 C237.61375657 109.32758635 243.93083459 118.66736133 248 125 C248 125.99 248 126.98 248 128 C248.90758057 128.3856311 248.90758057 128.3856311 249.83349609 128.77905273 C252.23636219 130.13320344 253.16016552 131.24975442 254.6640625 133.53515625 C255.38009644 134.61265137 255.38009644 134.61265137 256.1105957 135.71191406 C256.86022583 136.8754541 256.86022583 136.8754541 257.625 138.0625 C258.41233521 139.26664551 258.41233521 139.26664551 259.21557617 140.49511719 C273.3608347 162.31227171 286.37660019 185.80898292 293.41015625 210.98828125 C294.00725375 213.16637887 294.00725375 213.16637887 295.1875 215.8125 C296.12125922 218.32646713 296.15203075 220.33946185 296 223 C296.66 223 297.32 223 298 223 C301.4845148 234.82576483 304.03160202 246.75875511 306.25 258.875 C306.44556488 259.925168 306.44556488 259.925168 306.64508057 260.99655151 C307.02664169 263.05622871 307.39781946 265.11751357 307.765625 267.1796875 C308.08708496 268.96995361 308.08708496 268.96995361 308.41503906 270.79638672 C310.04439958 281.40048724 310.23573059 292.2252711 310.55441284 302.93034363 C310.57538437 303.61900275 310.59635591 304.30766188 310.61796294 305.01718947 C311.06951188 320.04950128 311.14175109 335.07582582 311.12939453 350.11450195 C311.13020652 352.96160967 311.13250285 355.80871582 311.13470459 358.65582275 C311.13908249 365.48780853 311.13822334 372.31978315 311.13529195 379.15176932 C311.13301126 384.70113252 311.13273675 390.25049265 311.13381577 395.79985619 C311.133969 396.59673374 311.13412223 397.39361129 311.13428011 398.21463665 C311.13459989 399.83430337 311.1349241 401.45397008 311.1352527 403.07363679 C311.1380826 418.14416727 311.13485714 433.21469159 311.12945233 448.28522106 C311.12496133 461.20927476 311.12578379 474.1333195 311.13037109 487.05737305 C311.13571784 502.12780393 311.13783441 517.19822951 311.13475883 532.2686612 C311.13444031 533.8727078 311.13412594 535.47675441 311.13381577 537.08080101 C311.13366149 537.86976714 311.13350721 538.65873326 311.13334826 539.47160745 C311.13248528 545.02749844 311.13394076 550.58338604 311.13629532 556.1392765 C311.13909347 562.88851794 311.13835367 569.63774774 311.13301457 576.38698784 C311.13038167 579.82851628 311.12936595 583.27002527 311.13266373 586.71155357 C311.13537805 590.43539235 311.13199096 594.15917566 311.12698364 597.88301086 C311.12921436 598.97692857 311.13144509 600.07084627 311.13374341 601.19791299 C311.13113566 602.19085309 311.12852791 603.1837932 311.12584114 604.2068224 C311.12567879 605.06625031 311.12551644 605.92567823 311.12534916 606.81114942 C311 609 311 609 310 612 C305.58334775 612.02945039 301.16672133 612.04694816 296.75 612.0625 C295.51507813 612.07087891 294.28015625 612.07925781 293.0078125 612.08789062 C285.28308496 612.10821886 277.68498153 611.79005315 270 611 C270 610.34 270 609.68 270 609 C269.23558594 609.03480469 268.47117187 609.06960938 267.68359375 609.10546875 C258.74860932 609.33126258 250.63570127 608.22819565 242 606 C241.67 605.67 241.34 605.34 241 605 C239.5070511 604.67415798 238.00498133 604.38976523 236.5 604.125 C232.23071531 603.31006531 228.25344787 602.16259184 224.16015625 600.71875 C222.0570982 600.01899832 219.97248775 599.49183782 217.8125 599 C214 598 214 598 211.25 596.5625 C207.18085433 594.60617997 203.09097691 593.67411535 198.70703125 592.6484375 C196 592 196 592 193 591 C193 590.34 193 589.68 193 589 C192.27554688 588.87367188 191.55109375 588.74734375 190.8046875 588.6171875 C188.07765944 588.0170894 185.70277547 587.18740587 183.125 586.125 C182.26390625 585.77179687 181.4028125 585.41859375 180.515625 585.0546875 C177.33541442 583.7213694 174.16244463 582.37497593 171 581 C171 580.34 171 579.68 171 579 C169.68 579 168.36 579 167 579 C167 578.34 167 577.68 167 577 C166.2575 576.87625 165.515 576.7525 164.75 576.625 C162.19858515 576.04513299 160.2732427 575.26291261 158 574 C158 573.34 158 572.68 158 572 C157.27425781 571.88785156 156.54851562 571.77570312 155.80078125 571.66015625 C152.87436007 570.97038613 150.77712191 569.94489186 148.1875 568.4375 C147.39730469 567.98246094 146.60710937 567.52742187 145.79296875 567.05859375 C145.20128906 566.70925781 144.60960937 566.35992188 144 566 C144 565.34 144 564.68 144 564 C143.030625 563.71125 142.06125 563.4225 141.0625 563.125 C138 562 138 562 137 560 C136.01 559.67 135.02 559.34 134 559 C134 558.34 134 557.68 134 557 C133.46761719 556.92523437 132.93523437 556.85046875 132.38671875 556.7734375 C129.06772982 555.69788953 126.55341645 553.71457683 123.8125 551.625 C123.26658203 551.22539063 122.72066406 550.82578125 122.15820312 550.4140625 C119.41506242 548.34735921 118.11048883 547.33146648 117 544 C116.43410156 543.87496094 115.86820312 543.74992188 115.28515625 543.62109375 C111.85285196 542.68821105 109.99492314 540.48770263 107.4375 538.0625 C104.67815984 535.46040853 102.15728883 533.10485922 99 531 C99 530.34 99 529.68 99 529 C98.34 529 97.68 529 97 529 C97 528.34 97 527.68 97 527 C96.01 526.67 95.02 526.34 94 526 C94 525.34 94 524.68 94 524 C93.34 524 92.68 524 92 524 C92 523.34 92 522.68 92 522 C91.01 521.67 90.02 521.34 89 521 C89 520.34 89 519.68 89 519 C88.34 519 87.68 519 87 519 C87 518.34 87 517.68 87 517 C86.01 516.67 85.02 516.34 84 516 C84 515.34 84 514.68 84 514 C83.34 514 82.68 514 82 514 C82 513.34 82 512.68 82 512 C81.01 511.67 80.02 511.34 79 511 C77.5703125 509.328125 77.5703125 509.328125 76.125 507.25 C74.37844203 504.82279811 72.77676257 502.78263724 70.625 500.6875 C67.45653818 497.44359861 64.94380895 493.92370706 62.31640625 490.234375 C60.6381012 487.89097436 58.94233776 485.57209804 57.21484375 483.265625 C52.32122402 476.71879996 47.71552173 470.30437794 44 463 C43.21453739 461.55910068 42.42262983 460.12169978 41.625 458.6875 C41.21507812 457.94628906 40.80515625 457.20507812 40.3828125 456.44140625 C38.27195798 452.71461508 36.05804696 449.04893624 33.84375 445.3828125 C28.8588445 436.23677826 24.96276781 426.47218562 20.9375 416.875 C20.67131866 416.24092224 20.40513733 415.60684448 20.13088989 414.95355225 C16.49560603 406.23650137 13.46711952 397.69774294 11.74609375 388.3828125 C10.92496583 384.65979271 9.50893242 381.49478131 8 378 C7.41772127 375.68123669 6.89578514 373.34641994 6.4375 371 C5.74454244 367.49214704 5.02510805 364.08428427 4.00390625 360.65625 C2.80609073 356.29377791 2.1255095 351.97479872 1.5 347.5 C1.38269531 346.72269531 1.26539063 345.94539063 1.14453125 345.14453125 C-1.74427425 324.86076787 -2.29841586 304.62322843 -2.26144934 284.16614103 C-2.25684869 280.38457788 -2.26394494 276.60303172 -2.26940918 272.82147217 C-2.27821998 265.45283096 -2.27642028 258.08423089 -2.2705839 250.71558818 C-2.26604112 244.72979435 -2.26546569 238.74401193 -2.26763153 232.75821686 C-2.267938 231.90183731 -2.26824446 231.04545776 -2.26856022 230.16312732 C-2.26919973 228.42290979 -2.26984815 226.68269227 -2.2705054 224.94247475 C-2.27618247 208.70025149 -2.26968866 192.45805096 -2.25890467 176.21583143 C-2.24993931 162.28026957 -2.25155072 148.34474097 -2.26074219 134.40917969 C-2.27143598 118.18846886 -2.27566711 101.96777774 -2.26951766 85.74706388 C-2.26888059 84.0198652 -2.26825185 82.29266652 -2.26763153 80.56546783 C-2.2671687 79.29096684 -2.2671687 79.29096684 -2.26669653 77.99071835 C-2.2649693 72.00211582 -2.2678846 66.01352582 -2.27259064 60.02492523 C-2.27818811 52.74295589 -2.27670564 45.46102969 -2.26602915 38.17906532 C-2.26076209 34.46417081 -2.25873369 30.74934836 -2.26532745 27.03445435 C-2.27235535 23.01450388 -2.26398309 18.99473653 -2.25396729 14.97479248 C-2.25842873 13.79302579 -2.26289017 12.61125909 -2.26748681 11.39368129 C-2.26227132 10.32203959 -2.25705582 9.25039789 -2.25168228 8.1462822 C-2.25135758 7.21818261 -2.25103287 6.29008302 -2.25069833 5.33385921 C-2 3 -2 3 0 0 Z " fill="#000000" transform="translate(34,9)"/>
<path d="M0 0 C30.72613798 -0.09176209 61.45224385 -0.16229995 92.17848663 -0.20426132 C95.82732464 -0.2092626 99.47616239 -0.21444004 103.125 -0.21972656 C103.85124806 -0.2207758 104.57749612 -0.22182505 105.32575169 -0.22290608 C116.99942052 -0.24018908 128.67300846 -0.2716578 140.34662971 -0.30861118 C152.37465048 -0.34636151 164.40262966 -0.36830672 176.43070722 -0.37635398 C183.16572848 -0.38129287 189.90055709 -0.39342357 196.63552094 -0.42292023 C245.37227521 -0.62781387 245.37227521 -0.62781387 267.02050781 1.83691406 C268.11125933 1.96015022 268.11125933 1.96015022 269.22404623 2.08587599 C276.08686168 2.89168435 282.66546061 3.86434583 289.15160751 6.30573654 C292.38052782 7.51853166 295.7265289 8.32411171 299.0625 9.1875 C299.73732422 9.36474609 300.41214844 9.54199219 301.10742188 9.72460938 C302.73758964 10.1523839 304.36869293 10.57659092 306 11 C306 11.66 306 12.32 306 13 C306.87398437 13.23783203 306.87398437 13.23783203 307.765625 13.48046875 C314.7493444 15.4679738 321.34533188 18.10716317 328 21 C328 21.66 328 22.32 328 23 C329.0828125 23.185625 329.0828125 23.185625 330.1875 23.375 C332.95721894 23.9904931 335.3970354 24.88444374 338 26 C338 26.66 338 27.32 338 28 C339.65 28.33 341.3 28.66 343 29 C343 29.66 343 30.32 343 31 C343.99 31 344.98 31 346 31 C346 31.66 346 32.32 346 33 C347.65 33.33 349.3 33.66 351 34 C351 34.66 351 35.32 351 36 C351.78375 36.309375 352.5675 36.61875 353.375 36.9375 C356 38 356 38 358 39 C358 39.66 358 40.32 358 41 C358.99 41 359.98 41 361 41 C361 41.66 361 42.32 361 43 C363.33214148 44.20628008 365.49642139 45.1654738 368 46 C369.6875 47.4375 369.6875 47.4375 371 49 C371 49.66 371 50.32 371 51 C371.66 51 372.32 51 373 51 C374.71230248 52.61974559 376.37163262 54.2958946 378 56 C378.825 56.825 379.65 57.65 380.5 58.5 C383 61 385.5 63.5 388 66 C388.9075 66.86625 389.815 67.7325 390.75 68.625 C393 71 393 71 394 74 C394.66 74 395.32 74 396 74 C396 74.66 396 75.32 396 76 C396.66 76 397.32 76 398 76 C404.74056104 82.87882896 421 101.28149224 421 111 C421.66 111 422.32 111 423 111 C423.33 112.65 423.66 114.3 424 116 C424.66 116 425.32 116 426 116 C426.99 119.3 427.98 122.6 429 126 C429.66 126 430.32 126 431 126 C431.226875 126.928125 431.45375 127.85625 431.6875 128.8125 C433.39987748 134.84251497 436.30720598 140.44113384 438.9921875 146.0859375 C440.57392406 149.53562961 441.34587856 152.19533586 441 156 C441.66 156 442.32 156 443 156 C445.24076306 162.32499077 446.58459919 168.71110821 447.6875 175.3125 C447.81874268 176.08899902 447.94998535 176.86549805 448.08520508 177.66552734 C448.69996527 181.48273049 449.16267824 185.11896191 449 189 C449.66 189 450.32 189 451 189 C451.06058594 190.16917969 451.12117188 191.33835937 451.18359375 192.54296875 C451.26804034 194.09115614 451.35268625 195.63933268 451.4375 197.1875 C451.47681641 197.95642578 451.51613281 198.72535156 451.55664062 199.51757812 C451.77577475 203.44513592 452.16945997 207.14683888 453 211 C453.21162006 213.73137522 453.1355207 216.24441251 453 219 C450.34048149 221.65951851 448.36270237 221.2458483 444.74500459 221.27214891 C443.41594877 221.26647992 443.41594877 221.26647992 442.06004333 221.26069641 C441.12198335 221.26452196 440.18392337 221.26834751 439.21743733 221.27228898 C436.05302402 221.28266149 432.88879077 221.27861839 429.72436523 221.2746582 C427.46237011 221.27900321 425.20037646 221.28418564 422.93838501 221.29014587 C416.76911261 221.30359261 410.5999013 221.30410662 404.43061709 221.30158257 C399.26413959 221.30051336 394.09767447 221.3053967 388.93119961 221.310188 C376.00712449 221.3219467 363.08308813 221.32104787 350.15901131 221.31463119 C339.01047238 221.30949984 327.86202184 221.32061249 316.71350037 221.33972941 C305.22443026 221.35927569 293.735412 221.36704393 282.24632412 221.36360615 C275.81385259 221.36181022 269.38146134 221.36425442 262.94900322 221.37832069 C236.15095964 221.43207668 209.62511583 221.31815034 183 218 C183 217.34 183 216.68 183 216 C182.05125 216.04125 181.1025 216.0825 180.125 216.125 C174.13592574 216.125 168.01772777 215.34515184 163 212 C160.47443489 211.41154615 157.98620796 210.89322924 155.4375 210.4375 C148.23105498 209.11552749 148.23105498 209.11552749 146 208 C146 207.34 146 206.68 146 206 C144.783125 205.87625 143.56625 205.7525 142.3125 205.625 C138.93520941 205.21108694 136.10243305 204.45426549 133 203 C133 202.34 133 201.68 133 201 C132.278125 200.87625 131.55625 200.7525 130.8125 200.625 C128.04278106 200.0095069 125.6029646 199.11555626 123 198 C123 197.34 123 196.68 123 196 C122.34 195.9175 121.68 195.835 121 195.75 C117.00960837 194.75240209 113.61450357 192.92833317 110 191 C110 190.34 110 189.68 110 189 C108.35 188.67 106.7 188.34 105 188 C105 187.34 105 186.68 105 186 C104.44441406 185.89429688 103.88882813 185.78859375 103.31640625 185.6796875 C100.54901558 184.86767068 98.40233717 183.61951665 95.9375 182.125 C95.08027344 181.61195313 94.22304688 181.09890625 93.33984375 180.5703125 C91.26189214 179.17576067 89.59856582 177.91827899 88 176 C88 175.34 88 174.68 88 174 C87.46375 173.7525 86.9275 173.505 86.375 173.25 C83.4176018 171.69347463 80.70275949 169.96564327 78 168 C78 167.34 78 166.68 78 166 C77.34 166 76.68 166 76 166 C76 165.34 76 164.68 76 164 C75.01 163.67 74.02 163.34 73 163 C73 162.34 73 161.68 73 161 C71.35 160.34 69.7 159.68 68 159 C68 158.01 68 157.02 68 156 C66.35 155.34 64.7 154.68 63 154 C63 153.01 63 152.02 63 151 C62.34 151 61.68 151 61 151 C61 150.34 61 149.68 61 149 C60.01 148.67 59.02 148.34 58 148 C58 147.34 58 146.68 58 146 C57.34 146 56.68 146 56 146 C53.29484818 143.76530937 51.65278292 141.069454 50 138 C50 137.34 50 136.68 50 136 C49.34 136 48.68 136 48 136 C48 135.34 48 134.68 48 134 C47.34 134 46.68 134 46 134 C45.4225 132.9275 44.845 131.855 44.25 130.75 C42.95325536 128.46243286 41.90700926 126.90991522 40 125.0625 C37.61441402 122.60236446 36.46054145 120.10639189 35.015625 117.02734375 C34.05555324 115.11089281 32.98688495 113.43394671 31.75 111.6875 C30 109 30 109 30 106 C29.34 106 28.68 106 28 106 C26.65722268 103.2336466 25.32744772 100.46123789 24 97.6875 C23.6184375 96.90181641 23.236875 96.11613281 22.84375 95.30664062 C22.4828125 94.54931641 22.121875 93.79199219 21.75 93.01171875 C21.41484375 92.31522217 21.0796875 91.61872559 20.734375 90.90112305 C20 89 20 89 20 86 C19.34 86 18.68 86 18 86 C17.49663233 84.37604003 16.99741024 82.75079459 16.5 81.125 C16.2215625 80.22007812 15.943125 79.31515625 15.65625 78.3828125 C15 76 15 76 15 74 C14.34 74 13.68 74 13 74 C10.37193471 65.72893157 7.94167152 57.4601402 6 49 C5.76539063 47.98808594 5.53078125 46.97617187 5.2890625 45.93359375 C3.4996139 37.63093706 2.23125493 29.26276222 1.03292847 20.85665894 C0.75365935 18.90063045 0.46781514 16.94554437 0.18188477 14.99047852 C0.01358154 13.77416748 -0.15472168 12.55785645 -0.328125 11.3046875 C-0.4818457 10.21140137 -0.63556641 9.11811523 -0.79394531 7.99169922 C-0.99580455 5.06091353 -0.63098529 2.8456663 0 0 Z " fill="#000000" transform="translate(374,402)"/>
<path d="M0 0 C1.16660156 0.00322266 2.33320312 0.00644531 3.53515625 0.00976562 C4.75847656 0.01814453 5.98179687 0.02652344 7.2421875 0.03515625 C8.47324219 0.03966797 9.70429687 0.04417969 10.97265625 0.04882812 C14.02088142 0.06064295 17.06901064 0.07711597 20.1171875 0.09765625 C20.14062143 21.31737976 20.15821798 42.53710112 20.16899967 63.75683498 C20.17414043 73.61108777 20.18114049 83.46533248 20.19262695 93.31958008 C20.20264197 101.91562486 20.20905705 110.51166378 20.21127599 119.10771424 C20.21257159 123.65278954 20.2155837 128.19784811 20.22291756 132.74291801 C20.22978574 137.03481397 20.23178288 141.32668656 20.23029518 145.61858749 C20.23056672 147.18046636 20.23250701 148.74234614 20.23639297 150.3042202 C20.26151673 160.93813886 19.84780723 171.48868889 19.1171875 182.09765625 C18.4571875 182.09765625 17.7971875 182.09765625 17.1171875 182.09765625 C17.12878906 182.97808594 17.14039063 183.85851562 17.15234375 184.765625 C17.16136719 185.92707031 17.17039062 187.08851563 17.1796875 188.28515625 C17.19128906 189.43371094 17.20289063 190.58226562 17.21484375 191.765625 C17.12911582 194.69066211 16.79567773 197.26081916 16.1171875 200.09765625 C15.4571875 200.09765625 14.7971875 200.09765625 14.1171875 200.09765625 C14.12878906 200.73574219 14.14039063 201.37382812 14.15234375 202.03125 C14.16136719 202.85753906 14.17039062 203.68382812 14.1796875 204.53515625 C14.19708984 205.77072266 14.19708984 205.77072266 14.21484375 207.03125 C14.1171875 209.09765625 14.1171875 209.09765625 13.1171875 210.09765625 C12.74958019 212.42583589 12.41477169 214.75949475 12.1171875 217.09765625 C11.4571875 217.09765625 10.7971875 217.09765625 10.1171875 217.09765625 C9.7459375 219.01578125 9.7459375 219.01578125 9.3671875 220.97265625 C7.87478582 227.65693422 5.47679797 233.9446221 1.9921875 239.84765625 C0.05050461 242.94705702 0.05050461 242.94705702 -0.8203125 246.03515625 C-2.0159903 249.48152169 -3.72769348 252.15332142 -5.70703125 255.1953125 C-7.07153893 257.40300433 -8.03989047 259.64551945 -8.8828125 262.09765625 C-9.5428125 262.09765625 -10.2028125 262.09765625 -10.8828125 262.09765625 C-11.099375 262.76152344 -11.3159375 263.42539062 -11.5390625 264.109375 C-13.33417808 268.10141982 -15.78556179 271.40353223 -18.3828125 274.91015625 C-18.88167969 275.60302734 -19.38054687 276.29589844 -19.89453125 277.00976562 C-20.37535156 277.66396484 -20.85617187 278.31816406 -21.3515625 278.9921875 C-21.78919922 279.58878174 -22.22683594 280.18537598 -22.67773438 280.80004883 C-23.27424805 281.4423645 -23.27424805 281.4423645 -23.8828125 282.09765625 C-24.5428125 282.09765625 -25.2028125 282.09765625 -25.8828125 282.09765625 C-26.1303125 282.649375 -26.3778125 283.20109375 -26.6328125 283.76953125 C-28.12515724 286.54902332 -29.91953773 288.87912695 -31.8828125 291.34765625 C-32.5840625 292.2396875 -33.2853125 293.13171875 -34.0078125 294.05078125 C-34.9359375 295.06398438 -34.9359375 295.06398438 -35.8828125 296.09765625 C-36.5428125 296.09765625 -37.2028125 296.09765625 -37.8828125 296.09765625 C-38.2128125 297.08765625 -38.5428125 298.07765625 -38.8828125 299.09765625 C-40.51953125 300.74609375 -40.51953125 300.74609375 -42.5703125 302.47265625 C-43.28832031 303.07980469 -44.00632812 303.68695313 -44.74609375 304.3125 C-45.45121094 304.90160156 -46.15632812 305.49070312 -46.8828125 306.09765625 C-47.47449219 306.61457031 -48.06617188 307.13148438 -48.67578125 307.6640625 C-52.63762019 311.09765625 -52.63762019 311.09765625 -54.8828125 311.09765625 C-55.2128125 312.08765625 -55.5428125 313.07765625 -55.8828125 314.09765625 C-58.4453125 315.28515625 -58.4453125 315.28515625 -60.8828125 316.09765625 C-60.8828125 316.75765625 -60.8828125 317.41765625 -60.8828125 318.09765625 C-61.78 318.49984375 -61.78 318.49984375 -62.6953125 318.91015625 C-64.88725138 319.96596947 -64.88725138 319.96596947 -66.3203125 321.53515625 C-68.31403019 323.52887394 -70.39146973 324.7897013 -72.8828125 326.09765625 C-73.8728125 326.09765625 -74.8628125 326.09765625 -75.8828125 326.09765625 C-75.8828125 326.75765625 -75.8828125 327.41765625 -75.8828125 328.09765625 C-77.5328125 328.42765625 -79.1828125 328.75765625 -80.8828125 329.09765625 C-80.8828125 329.75765625 -80.8828125 330.41765625 -80.8828125 331.09765625 C-89.88585175 336.38987758 -98.88970211 340.14835023 -108.79248047 343.40234375 C-110.76085444 344.05708903 -112.71499533 344.74226336 -114.66796875 345.44140625 C-123.56603837 348.56286811 -132.49192401 350.73980751 -141.71704102 352.640625 C-144.00445125 353.12332503 -146.28050204 353.64709394 -148.55859375 354.171875 C-157.59530415 356.18621081 -167.65766244 356.98411204 -176.8828125 356.09765625 C-179.65192336 353.32854539 -179.13669186 351.71351407 -179.14350891 347.83294678 C-179.14733446 347.18270231 -179.15116001 346.53245785 -179.15510148 345.86250901 C-179.16546123 343.67225568 -179.16143328 341.4822631 -179.1574707 339.29199219 C-179.1618167 337.72462724 -179.16699947 336.15726443 -179.17295837 334.58990479 C-179.18640157 330.31539421 -179.18691901 326.04097182 -179.18439507 321.76644421 C-179.18332459 318.1803505 -179.18821299 314.59427457 -179.1930005 311.00818467 C-179.20412323 302.51423205 -179.20452372 294.02032358 -179.19848633 285.52636719 C-179.19250291 276.83702473 -179.20460572 268.14784651 -179.2260564 259.45853209 C-179.24387209 251.95913612 -179.24964114 244.45979135 -179.24641865 236.96037507 C-179.24463008 232.50039114 -179.24698848 228.04052313 -179.26113319 223.58055878 C-179.33714859 197.34973109 -179.22209041 170.72452441 -172.8828125 145.09765625 C-172.2228125 145.09765625 -171.5628125 145.09765625 -170.8828125 145.09765625 C-170.7590625 143.48890625 -170.7590625 143.48890625 -170.6328125 141.84765625 C-169.57064931 133.28965572 -165.96167885 125.10270876 -162.8828125 117.09765625 C-162.2228125 117.09765625 -161.5628125 117.09765625 -160.8828125 117.09765625 C-160.8828125 115.44765625 -160.8828125 113.79765625 -160.8828125 112.09765625 C-160.2228125 112.09765625 -159.5628125 112.09765625 -158.8828125 112.09765625 C-158.70105469 111.43378906 -158.51929688 110.76992187 -158.33203125 110.0859375 C-155.66928398 100.73218427 -155.66928398 100.73218427 -152.8828125 97.09765625 C-152.2228125 97.09765625 -151.5628125 97.09765625 -150.8828125 97.09765625 C-150.5734375 96.31390625 -150.2640625 95.53015625 -149.9453125 94.72265625 C-148.8828125 92.09765625 -148.8828125 92.09765625 -147.8828125 90.09765625 C-147.2228125 90.09765625 -146.5628125 90.09765625 -145.8828125 90.09765625 C-145.5528125 88.44765625 -145.2228125 86.79765625 -144.8828125 85.09765625 C-144.2228125 85.09765625 -143.5628125 85.09765625 -142.8828125 85.09765625 C-142.78871094 84.535625 -142.69460938 83.97359375 -142.59765625 83.39453125 C-141.7068716 80.53233794 -140.29409368 78.69995164 -138.4453125 76.34765625 C-137.82785156 75.5484375 -137.21039063 74.74921875 -136.57421875 73.92578125 C-136.01605469 73.3225 -135.45789063 72.71921875 -134.8828125 72.09765625 C-134.2228125 72.09765625 -133.5628125 72.09765625 -132.8828125 72.09765625 C-132.49778564 70.98245605 -132.49778564 70.98245605 -132.10498047 69.84472656 C-130.82814206 66.97477336 -129.53026594 65.35841844 -127.328125 63.14453125 C-126.63074219 62.44328125 -125.93335938 61.74203125 -125.21484375 61.01953125 C-124.48652344 60.3028125 -123.75820313 59.58609375 -123.0078125 58.84765625 C-122.28722656 58.11546875 -121.56664062 57.38328125 -120.82421875 56.62890625 C-120.12425781 55.9328125 -119.42429687 55.23671875 -118.703125 54.51953125 C-118.06648926 53.8862793 -117.42985352 53.25302734 -116.77392578 52.60058594 C-114.75838041 50.99876599 -113.35085219 50.65284979 -110.8828125 50.09765625 C-110.18343718 48.78118506 -109.51552117 47.44743474 -108.8828125 46.09765625 C-107.8928125 45.76765625 -106.9028125 45.43765625 -105.8828125 45.09765625 C-105.8828125 44.43765625 -105.8828125 43.77765625 -105.8828125 43.09765625 C-103.6290304 41.00074897 -101.06231218 39.2758663 -98.5703125 37.47265625 C-97.53487305 36.69921875 -97.53487305 36.69921875 -96.47851562 35.91015625 C-95.81142578 35.42289063 -95.14433594 34.935625 -94.45703125 34.43359375 C-93.84432373 33.9854834 -93.23161621 33.53737305 -92.6003418 33.07568359 C-90.8828125 32.09765625 -90.8828125 32.09765625 -87.8828125 32.09765625 C-87.8828125 31.43765625 -87.8828125 30.77765625 -87.8828125 30.09765625 C-85.47923588 28.13921734 -82.76823668 26.60041824 -80.1328125 24.97265625 C-79.40320313 24.50472656 -78.67359375 24.03679688 -77.921875 23.5546875 C-77.21289062 23.11253906 -76.50390625 22.67039062 -75.7734375 22.21484375 C-75.12407227 21.80862793 -74.47470703 21.40241211 -73.80566406 20.98388672 C-71.8828125 20.09765625 -71.8828125 20.09765625 -67.8828125 20.09765625 C-67.8828125 19.43765625 -67.8828125 18.77765625 -67.8828125 18.09765625 C-63.88976204 16.41391997 -59.88921235 14.74937447 -55.8828125 13.09765625 C-54.69365234 12.60265625 -54.69365234 12.60265625 -53.48046875 12.09765625 C-49.82863309 10.6397257 -46.83023496 9.72758539 -42.8828125 10.09765625 C-42.8828125 9.43765625 -42.8828125 8.77765625 -42.8828125 8.09765625 C-40.35805788 6.83527894 -38.57080784 6.99909221 -35.7578125 7.03515625 C-34.84773437 7.04417969 -33.93765625 7.05320312 -33 7.0625 C-31.95199219 7.07990234 -31.95199219 7.07990234 -30.8828125 7.09765625 C-30.8828125 6.43765625 -30.8828125 5.77765625 -30.8828125 5.09765625 C-28.2428125 5.09765625 -25.6028125 5.09765625 -22.8828125 5.09765625 C-22.8828125 4.43765625 -22.8828125 3.77765625 -22.8828125 3.09765625 C-21.82320312 2.96488281 -20.76359375 2.83210937 -19.671875 2.6953125 C-18.28382971 2.5171175 -16.89581019 2.33872165 -15.5078125 2.16015625 C-14.45980469 2.02963867 -14.45980469 2.02963867 -13.390625 1.89648438 C-8.63641003 1.2793507 -4.8271847 -0.02343294 0 0 Z " fill="#000000" transform="translate(552.8828125,11.90234375)"/>
</svg>
